<svg width="18" height="23" viewBox="0 0 18 23" fill="white" xmlns="http://www.w3.org/2000/svg">
<path d="M8.99609 0.5C11.029 0.500009 12.8599 0.732724 14.1729 0.962891C15.341 1.16769 16.2624 1.96517 16.5605 3.08105C17.0318 4.84529 17.5724 7.81474 17.4922 11.9902C17.4034 16.6129 16.6473 19.7753 16.0117 21.6426C15.8807 22.0273 15.5988 22.2289 15.2842 22.2783C14.9589 22.3293 14.57 22.2187 14.2607 21.9014C13.4656 21.0854 12.4801 20.1236 11.5586 19.3623C11.0986 18.9823 10.6431 18.6425 10.2275 18.3955C9.83251 18.1608 9.3962 17.962 8.99609 17.9619C8.60208 17.9619 8.14709 18.1564 7.72266 18.3887C7.2751 18.6336 6.77254 18.9715 6.25684 19.3516C5.2236 20.1131 4.09564 21.0766 3.18066 21.8926C2.83769 22.1983 2.42627 22.275 2.09375 22.1885C1.77019 22.1042 1.49477 21.8606 1.40039 21.4424C0.970913 19.5389 0.5 16.4398 0.5 12C0.5 7.63602 1.01116 4.72677 1.45215 3.0293C1.73364 1.94586 2.62658 1.17442 3.76562 0.972656C5.08205 0.739469 6.93532 0.5 8.99609 0.5Z" stroke="white" stroke-linecap="round" stroke-linejoin="round"/>
</svg>
